<svg xmlns="http://www.w3.org/2000/svg" width="21.965" height="17.091" viewBox="0 0 21.965 17.091">
  <path id="dua-hands" d="M21.919,54.315a59.074,59.074,0,0,1-.714-6.179c.008-.821-.187-1.354-.581-1.584a1.058,1.058,0,0,0-1.074.07,1.6,1.6,0,0,0-.617.717l-.095-.151c-.143-.228-.287-.462-.426-.688-.327-.533-.666-1.084-1.034-1.607l-.147-.209A9.277,9.277,0,0,0,15.8,42.918a1.328,1.328,0,0,0-1.369-.254,1,1,0,0,0-.42.369L13.943,43a1.445,1.445,0,0,0-1.344.1,1.077,1.077,0,0,0-.436.961,1.581,1.581,0,0,0-.631.6,2.044,2.044,0,0,0-.164,1.482,1.846,1.846,0,0,0-.389.563,1.848,1.848,0,0,0-.389-.563,2.045,2.045,0,0,0-.164-1.482,1.582,1.582,0,0,0-.631-.6,1.076,1.076,0,0,0-.436-.961A1.445,1.445,0,0,0,8.016,43l-.064.028a1,1,0,0,0-.42-.369,1.328,1.328,0,0,0-1.369.254,9.277,9.277,0,0,0-1.434,1.767l-.147.209c-.369.524-.707,1.076-1.035,1.609-.139.226-.282.459-.425.686l-.095.151a1.6,1.6,0,0,0-.617-.717,1.058,1.058,0,0,0-1.074-.07c-.394.23-.59.763-.581,1.584A59.214,59.214,0,0,1,.04,54.315a2.739,2.739,0,0,0,.107,1.39A25.012,25.012,0,0,0,2.386,59.53l.529-.356A23.118,23.118,0,0,1,.75,55.5a2.118,2.118,0,0,1-.081-1.074,59.771,59.771,0,0,0,.723-6.275s0-.008,0-.012c-.009-.808.2-.994.266-1.032.143-.084.368.033.433.071a1.613,1.613,0,0,1,.555.948,16.224,16.224,0,0,1,.459,5.33,3.027,3.027,0,0,1,2.58,1.186,3.3,3.3,0,0,0-2.372-1.409,16.219,16.219,0,0,0-.1-4.981.306.306,0,0,0,.019-.026l.123-.2c.11-.178.21-.337.31-.5.145-.23.289-.465.429-.692.323-.525.656-1.068,1.013-1.576l.148-.211a9.539,9.539,0,0,1,1.3-1.624.73.73,0,0,1,.714-.184c.122.057.3.252.1,1.116a18.152,18.152,0,0,1-2.555,5.223c1.144-1.564,3.09-3.732,3.227-5.836a.664.664,0,0,1,.217-.149.823.823,0,0,1,.737.032.446.446,0,0,1,.167.418c0,.044-.014.127-.021.17,0,0,0,.006,0,.009h0A21.682,21.682,0,0,1,7,49.658a22.736,22.736,0,0,0,2.462-5.046c.234.107.763.477.463,1.575,0,0,0,.006,0,.01a25.772,25.772,0,0,1-1.5,4.032A26.766,26.766,0,0,0,10.2,46.661a1.881,1.881,0,0,1,.381.986c.026.574-.138,1.9-1.515,4.363a1.717,1.717,0,0,0,.2,1.831,3.88,3.88,0,0,1,.518,1.379,7.249,7.249,0,0,1-1.287,4.1l.54.34a7.78,7.78,0,0,0,1.379-4.525,4.471,4.471,0,0,0-.59-1.6c-.3-.557-.428-.82-.207-1.215A14.683,14.683,0,0,0,10.98,49.2a14.692,14.692,0,0,0,1.362,3.116c.221.4.1.658-.207,1.215a4.471,4.471,0,0,0-.589,1.6,7.779,7.779,0,0,0,1.379,4.525l.54-.34a7.248,7.248,0,0,1-1.287-4.1,3.88,3.88,0,0,1,.518-1.379,1.717,1.717,0,0,0,.2-1.831c-1.377-2.462-1.541-3.789-1.515-4.363a1.881,1.881,0,0,1,.381-.986,26.756,26.756,0,0,0,1.775,3.568,25.772,25.772,0,0,1-1.5-4.032s0-.006,0-.009c-.3-1.1.232-1.471.463-1.576a22.751,22.751,0,0,0,2.462,5.046A28.758,28.758,0,0,1,12.8,44.047a.418.418,0,0,1,.167-.419A.822.822,0,0,1,13.7,43.6a.667.667,0,0,1,.217.148c.137,2.1,2.083,4.273,3.227,5.836-1.051-1.73-2.663-3.908-2.659-6.035h0a.366.366,0,0,1,.208-.3.729.729,0,0,1,.714.184,9.536,9.536,0,0,1,1.3,1.624l.148.211c.357.507.69,1.049,1.012,1.574.14.228.285.463.43.694.1.156.2.312.3.485l.13.209c.006.009.012.017.019.026a16.22,16.22,0,0,0-.1,4.981,3.3,3.3,0,0,0-2.372,1.409,3.026,3.026,0,0,1,2.58-1.186,16.224,16.224,0,0,1,.458-5.329,1.615,1.615,0,0,1,.555-.948c.066-.038.29-.155.433-.071.065.038.275.224.265,1.032,0,0,0,.008,0,.012a59.706,59.706,0,0,0,.723,6.275,2.118,2.118,0,0,1-.081,1.075,23.117,23.117,0,0,1-2.165,3.679l.529.356a25.014,25.014,0,0,0,2.238-3.825A2.743,2.743,0,0,0,21.919,54.315Z" transform="translate(0.003 -42.567)" fill="#333"/>
</svg>
